<svg width="315" height="380" viewBox="0 0 315 380" fill="none" xmlns="http://www.w3.org/2000/svg">
<path d="M276.168 181.823C257.519 181.823 241.357 196.743 238.87 215.394H187.897C186.653 209.177 184.167 202.96 180.437 197.987L241.357 135.818C252.546 143.279 268.709 142.035 277.412 130.845C286.115 119.655 286.115 103.491 276.168 93.5436C266.222 83.5965 251.303 82.3532 240.113 91.0568C228.924 99.7605 226.437 115.924 233.897 128.358L172.977 190.526C168.004 186.796 161.788 184.309 155.571 183.066V74.8929C176.707 72.4064 190.383 52.5125 187.897 32.6186C186.653 11.4814 166.761 -2.19572 146.868 0.291021C126.976 2.77776 112.057 22.6717 114.543 43.8089C117.03 59.9728 129.463 73.6495 146.868 76.1363V183.066C140.652 184.309 134.436 186.796 129.463 190.526L80.9756 140.792C84.7054 132.088 80.9756 122.141 73.5159 118.411C72.2726 118.411 72.2726 118.411 71.0294 117.168C63.5697 113.438 56.1101 115.924 51.1371 122.141C47.4073 128.358 47.4073 137.062 52.3804 142.035C57.3534 148.252 64.813 149.496 72.2726 145.765L120.76 196.743C112.057 209.177 110.814 226.584 118.273 240.262L41.191 319.837C31.2448 311.133 15.0824 312.377 6.37951 323.567C-2.32335 334.758 -2.32335 350.921 7.62281 360.868C17.5689 370.815 32.4881 372.058 43.6775 363.355C54.8669 354.651 57.3534 338.488 49.8938 326.054L125.733 247.722C130.706 252.695 138.166 256.425 145.625 257.668V324.811C131.949 327.297 123.246 340.975 124.489 354.651C125.733 369.571 138.166 380.762 153.085 379.518C166.761 378.275 176.707 368.328 177.95 354.651C179.194 340.975 170.491 327.297 156.815 324.811V257.668C163.031 256.425 169.247 253.938 174.221 250.209L222.708 299.943C221.464 302.43 221.464 304.917 221.464 307.403C221.464 316.107 228.924 323.567 237.627 323.567C246.33 323.567 253.789 316.107 253.789 307.403C253.789 298.7 246.33 291.239 237.627 291.239C235.14 291.239 232.654 291.239 230.167 292.483L181.68 242.748C185.41 237.775 187.897 231.558 189.14 225.341H240.113C242.6 245.235 261.249 260.155 281.142 258.912C302.276 256.425 317.196 236.531 314.709 215.394C310.979 196.743 296.061 181.823 276.168 181.823Z" fill="white"/>
</svg>
